<svg width="555" height="149" viewBox="0 0 555 149" fill="none" xmlns="http://www.w3.org/2000/svg" preserveAspectRatio="xMidYMid meet">
<path d="M4.12891 36.7966V4.96484H29.8706" stroke="#FEFFFF" stroke-width="3"/>
<path d="M525.133 144.031H550.875V112.199" stroke="#FEFFFF" stroke-width="3"/>
<path d="M550.875 36.7966V4.96484H525.133" stroke="#FEFFFF" stroke-width="3"/>
<path d="M29.8706 144.031H4.12891V112.199" stroke="#FEFFFF" stroke-width="3"/>
<path d="M66.6378 32.0566C67.5751 32.0566 68.4879 32.2598 69.3763 32.6662C70.2648 33.0726 71.0438 33.622 71.7131 34.3142C72.3826 34.9915 72.912 35.8042 73.3014 36.7524C73.691 37.7006 73.8856 38.7242 73.8856 39.8227C73.8856 40.3496 73.8614 40.8463 73.8126 41.3127C73.7641 41.7793 73.7093 42.1932 73.6483 42.5544C73.551 42.9908 73.4657 43.3748 73.3927 43.7057C71.1776 54.4969 68.8591 65.499 66.437 76.7115C64.015 87.9242 61.6965 98.9109 59.4812 109.672C58.9823 111.042 58.325 112.253 57.5095 113.307C56.828 114.24 55.9394 115.075 54.844 115.813C53.7486 116.565 52.3794 116.941 50.7363 116.941H49.1845C47.5414 116.941 46.1661 116.565 45.0585 115.813C43.9511 115.075 43.0503 114.24 42.3565 113.307C41.5412 112.253 40.9082 111.042 40.4579 109.672L26.5281 43.7057C26.4308 43.3748 26.3455 42.9908 26.2725 42.5544C26.1144 41.7416 26.0352 40.8312 26.0352 39.8227C26.0352 38.7242 26.2239 37.7006 26.6011 36.7524C26.9785 35.8042 27.4897 34.9915 28.1347 34.3142C28.7919 33.622 29.5649 33.0726 30.4532 32.6662C31.3296 32.2598 32.2729 32.0566 33.283 32.0566C34.8531 32.0566 36.125 32.4856 37.0986 33.3435C38.0602 34.1864 38.8148 35.1346 39.3625 36.188C39.9832 37.3922 40.4458 38.7616 40.75 40.2968C41.1396 42.2383 41.5595 44.4356 42.0097 46.8889C42.4723 49.3271 42.9347 51.8633 43.3972 54.4969C43.8476 57.1157 44.31 59.7948 44.7847 62.5339C45.2593 65.2581 45.7097 67.892 46.1356 70.4354C47.146 76.4257 48.1621 82.5512 49.1845 88.8121H50.7363C51.8562 82.5512 52.9393 76.4257 53.986 70.4354C54.4121 67.892 54.8623 65.2581 55.337 62.5339C55.8116 59.7948 56.2743 57.1157 56.7245 54.4969C57.1871 51.8633 57.6313 49.3271 58.0572 46.8889C58.4833 44.4356 58.8545 42.2383 59.1708 40.2968C59.4995 38.7616 59.9741 37.3922 60.5949 36.188C61.1548 35.1346 61.9093 34.1864 62.8587 33.3435C63.808 32.4856 65.0677 32.0566 66.6378 32.0566ZM81.8273 103.351V69.8936C81.8273 68.193 81.9003 66.5373 82.0463 64.9269C82.1924 63.3015 82.5272 61.8566 83.0504 60.5924C83.5739 59.3133 84.3284 58.2822 85.3143 57.4995C86.2881 56.7019 87.6086 56.303 89.2759 56.303C90.9435 56.303 92.27 56.7019 93.2559 57.4995C94.2297 58.2822 94.9782 59.3133 95.5014 60.5924C96.0249 61.8566 96.3595 63.3015 96.5055 64.9269C96.6638 66.5373 96.7429 68.193 96.7429 69.8936V103.351C96.7429 105.052 96.6638 106.722 96.5055 108.363C96.3595 110.003 96.0249 111.456 95.5014 112.72C94.9782 113.999 94.2297 115.023 93.2559 115.79C92.27 116.558 90.9435 116.941 89.2759 116.941C87.6086 116.941 86.2881 116.558 85.3143 115.79C84.3284 115.023 83.5739 113.999 83.0504 112.72C82.5272 111.456 82.1924 110.003 82.0463 108.363C81.9003 106.722 81.8273 105.052 81.8273 103.351ZM96.8342 41.2675C96.8342 44.383 96.1769 46.7009 94.8625 48.2209C93.5602 49.7411 91.7346 50.501 89.3855 50.501C87.0244 50.501 85.1927 49.7411 83.8903 48.2209C82.5758 46.7009 81.9185 44.383 81.9185 41.2675C81.9185 38.0469 82.5758 35.7065 83.8903 34.2465C85.1927 32.7865 87.0244 32.0566 89.3855 32.0566C91.8928 32.0566 93.761 32.7865 94.9903 34.2465C96.2197 35.7065 96.8342 38.0469 96.8342 41.2675ZM142.731 65.401C142.731 68.5616 142.098 70.8644 140.833 72.3092C139.579 73.7692 137.79 74.4991 135.465 74.4991C135.136 74.4991 134.674 74.5293 134.078 74.5894C133.469 74.6496 132.818 74.8151 132.124 75.086C131.443 75.3418 130.749 75.7256 130.043 76.2374C129.349 76.7341 128.704 77.4188 128.108 78.2918C127.523 79.1648 127.049 80.2636 126.684 81.5878C126.331 82.9275 126.154 84.5227 126.154 86.3739V103.735C126.154 105.39 126.081 107.001 125.935 108.566C125.789 110.146 125.454 111.554 124.931 112.788C124.408 114.022 123.653 115.023 122.667 115.79C121.694 116.558 120.373 116.941 118.706 116.941C117.062 116.941 115.766 116.558 114.817 115.79C113.88 115.023 113.156 114.022 112.644 112.788C112.133 111.554 111.805 110.146 111.659 108.566C111.512 107.001 111.439 105.39 111.439 103.735V69.7807C111.439 68.0801 111.512 66.4321 111.659 64.8366C111.805 63.2414 112.133 61.8115 112.644 60.5472C113.156 59.2981 113.88 58.3048 114.817 57.5672C115.766 56.8148 117.062 56.4385 118.706 56.4385C120.373 56.4385 121.651 56.89 122.539 57.793C123.44 58.7112 124.103 59.8851 124.529 61.3148C124.956 62.7448 125.205 64.34 125.278 66.1009C125.339 67.8618 125.369 69.5701 125.369 71.2256H126.154C126.605 68.968 127.207 66.9213 127.962 65.085C128.716 63.2338 129.55 61.676 130.463 60.4118C131.376 59.1324 132.355 58.1468 133.402 57.4544C134.449 56.7771 135.496 56.4385 136.542 56.4385C137.82 56.4385 138.861 56.6116 139.664 56.9577C140.467 57.2889 141.094 57.823 141.545 58.5606C142.007 59.283 142.318 60.2086 142.476 61.3374C142.646 62.4813 142.731 63.8359 142.731 65.401ZM153.703 56.303H156.46V45.6472C156.46 43.9466 156.533 42.2911 156.679 40.6806C156.825 39.0551 157.16 37.6103 157.683 36.346C158.207 35.0667 158.955 34.0359 159.929 33.2532C160.915 32.4556 162.241 32.0566 163.909 32.0566C165.54 32.0566 166.848 32.4556 167.834 33.2532C168.808 34.0359 169.55 35.0667 170.061 36.346C170.56 37.6103 170.883 39.0551 171.029 40.6806C171.187 42.2911 171.266 43.9466 171.266 45.6472V56.303H175.283C176.135 56.303 176.981 56.3556 177.82 56.461C178.672 56.5665 179.433 56.8599 180.102 57.3415C180.772 57.8233 181.314 58.5531 181.727 59.5313C182.129 60.4946 182.33 61.8492 182.33 63.595C182.33 65.2507 182.129 66.5601 181.727 67.5232C181.314 68.5016 180.772 69.2315 180.102 69.713C179.433 70.1948 178.672 70.5108 177.82 70.6612C176.981 70.7966 176.135 70.8644 175.283 70.8644H171.266V92.0856C171.266 92.8983 171.291 93.7562 171.339 94.6592C171.388 95.5622 171.558 96.4052 171.85 97.1877C172.143 97.9553 172.581 98.5874 173.165 99.0841C173.761 99.5959 174.595 99.8516 175.666 99.8516C176.847 99.8516 177.851 99.9571 178.678 100.168C179.518 100.393 180.206 100.792 180.741 101.364C181.289 101.921 181.691 102.711 181.946 103.735C182.202 104.743 182.33 106.03 182.33 107.595C182.33 109.221 182.032 110.62 181.435 111.794C180.827 112.968 180.017 113.939 179.007 114.706C177.997 115.474 176.822 116.038 175.484 116.4C174.133 116.761 172.727 116.941 171.266 116.941C168.942 116.941 166.952 116.641 165.296 116.038C163.653 115.421 162.284 114.564 161.189 113.465C160.093 112.351 159.223 111.012 158.578 109.446C157.945 107.896 157.47 106.15 157.154 104.209C156.85 102.267 156.655 100.175 156.57 97.9327C156.497 95.6903 156.46 93.3349 156.46 90.8665V70.8644H153.703C152.852 70.8644 152.012 70.7966 151.184 70.6612C150.344 70.5108 149.602 70.1948 148.957 69.713C148.299 69.2315 147.764 68.5016 147.35 67.5232C146.948 66.5601 146.748 65.2507 146.748 63.595C146.748 61.8492 146.948 60.4946 147.35 59.5313C147.764 58.5531 148.299 57.8233 148.957 57.3415C149.602 56.8599 150.344 56.5665 151.184 56.461C152.012 56.3556 152.852 56.303 153.703 56.303ZM192.244 95.3591V70.1419C192.244 68.3962 192.322 66.6955 192.481 65.0398C192.651 63.3843 193.003 61.9092 193.54 60.615C194.075 59.3207 194.842 58.2822 195.84 57.4995C196.837 56.7019 198.188 56.303 199.893 56.303C201.56 56.303 202.88 56.7019 203.855 57.4995C204.841 58.2822 205.595 59.3207 206.119 60.615C206.641 61.9092 206.977 63.3843 207.123 65.0398C207.269 66.6955 207.342 68.3962 207.342 70.1419V93.7788C207.342 94.9527 207.384 96.074 207.47 97.1426C207.554 98.2113 207.743 99.1595 208.036 99.9871C208.328 100.815 208.758 101.485 209.332 101.996C209.903 102.508 210.675 102.764 211.65 102.764C212.965 102.764 214.035 102.215 214.863 101.116C215.703 100.032 216.361 98.5348 216.835 96.6233C217.31 94.7269 217.626 92.4996 217.785 89.9409C217.954 87.3672 218.04 84.6056 218.04 81.6556V70.1419C218.04 68.3962 218.119 66.6955 218.277 65.0398C218.434 63.3843 218.789 61.9092 219.336 60.615C219.871 59.3207 220.638 58.2822 221.637 57.4995C222.634 56.7019 223.984 56.303 225.69 56.303C227.344 56.303 228.665 56.7019 229.651 57.4995C230.637 58.2822 231.391 59.3207 231.915 60.615C232.437 61.9092 232.773 63.3843 232.919 65.0398C233.065 66.6955 233.138 68.3962 233.138 70.1419V103.238C233.138 104.984 233.089 106.67 232.992 108.295C232.894 109.936 232.596 111.396 232.098 112.675C231.61 113.939 230.867 114.97 229.87 115.768C228.872 116.55 227.479 116.941 225.69 116.941C223.888 116.941 222.482 116.565 221.472 115.813C220.45 115.075 219.689 114.18 219.19 113.126C218.679 112.073 218.356 110.959 218.223 109.785C218.1 108.611 218.04 107.603 218.04 106.76C217.772 107.934 217.357 109.123 216.799 110.327C216.251 111.546 215.544 112.637 214.681 113.6C213.805 114.579 212.764 115.376 211.559 115.993C210.354 116.625 208.948 116.941 207.342 116.941C205.54 116.941 203.745 116.58 201.956 115.858C200.154 115.121 198.535 113.909 197.1 112.223C195.663 110.523 194.495 108.295 193.595 105.541C192.693 102.786 192.244 99.3927 192.244 95.3591ZM283.928 70.1419V103.238C283.928 104.939 283.879 106.609 283.782 108.25C283.683 109.875 283.391 111.335 282.906 112.63C282.406 113.924 281.67 114.97 280.697 115.768C279.711 116.55 278.334 116.941 276.571 116.941C274.769 116.941 273.363 116.565 272.353 115.813C271.342 115.075 270.594 114.165 270.108 113.081C269.608 112.013 269.305 110.891 269.195 109.717C269.086 108.558 269.031 107.573 269.031 106.76C268.726 107.934 268.306 109.123 267.771 110.327C267.234 111.546 266.541 112.637 265.69 113.6C264.837 114.579 263.815 115.376 262.623 115.993C261.429 116.625 260.03 116.941 258.424 116.941C256.635 116.941 254.838 116.58 253.038 115.858C251.236 115.121 249.617 113.909 248.182 112.223C246.745 110.523 245.577 108.302 244.676 105.563C243.775 102.839 243.325 99.4755 243.325 95.4719V77.908C243.325 73.8595 243.775 70.4731 244.676 67.7489C245.577 65.0098 246.745 62.8048 248.182 61.1342C249.617 59.4636 251.236 58.2596 253.038 57.5221C254.838 56.7997 256.635 56.4385 258.424 56.4385C260.03 56.4385 261.429 56.7396 262.623 57.3415C263.815 57.9436 264.837 58.7337 265.69 59.7119C266.541 60.6753 267.234 61.7663 267.771 62.9854C268.306 64.1896 268.726 65.401 269.031 66.6201C269.031 64.6034 269.255 62.9254 269.706 61.5857C270.168 60.2463 270.758 59.1853 271.477 58.4025C272.195 57.6201 273.003 57.0783 273.905 56.7771C274.805 56.461 275.694 56.303 276.571 56.303C278.201 56.303 279.51 56.7019 280.496 57.4995C281.482 58.2822 282.223 59.3133 282.723 60.5924C283.234 61.8566 283.563 63.3317 283.709 65.0172C283.855 66.6879 283.928 68.3962 283.928 70.1419ZM258.424 79.24V93.8916C258.424 94.9904 258.46 96.0666 258.533 97.12C258.593 98.1736 258.771 99.1218 259.063 99.9645C259.366 100.808 259.804 101.485 260.377 101.996C260.949 102.508 261.739 102.764 262.75 102.764C264.028 102.764 265.062 102.41 265.854 101.703C266.657 100.996 267.289 99.9042 267.753 98.4294C268.202 96.9545 268.52 95.0882 268.702 92.8306C268.885 90.5881 268.994 87.9167 269.031 84.8162C269.031 83.5519 268.939 82.1071 268.757 80.4816C268.574 78.8413 268.251 77.291 267.789 75.831C267.338 74.3862 266.705 73.1522 265.891 72.1286C265.075 71.1204 264.028 70.616 262.75 70.616C261.739 70.616 260.949 70.872 260.377 71.3836C259.804 71.8803 259.366 72.535 259.063 73.3477C258.771 74.1604 258.593 75.0786 258.533 76.1019C258.46 77.1404 258.424 78.1864 258.424 79.24ZM296.087 103.351V45.5118C296.087 43.8263 296.16 42.1706 296.306 40.5451C296.452 38.9348 296.786 37.5048 297.31 36.2557C297.832 34.9915 298.588 33.9756 299.574 33.208C300.547 32.4404 301.867 32.0566 303.536 32.0566C305.239 32.0566 306.577 32.4404 307.552 33.208C308.538 33.9756 309.287 34.9915 309.798 36.2557C310.296 37.5048 310.619 38.9348 310.765 40.5451C310.911 42.1706 310.984 43.8263 310.984 45.5118V103.351C310.984 105.052 310.911 106.722 310.765 108.363C310.619 110.003 310.296 111.456 309.798 112.72C309.287 113.999 308.538 115.023 307.552 115.79C306.577 116.558 305.239 116.941 303.536 116.941C301.867 116.941 300.547 116.558 299.574 115.79C298.588 115.023 297.832 113.999 297.31 112.72C296.786 111.456 296.452 110.003 296.306 108.363C296.16 106.722 296.087 105.052 296.087 103.351ZM389.141 82.1297V103.238C389.141 104.939 389.073 106.609 388.94 108.25C388.818 109.875 388.507 111.335 388.009 112.63C387.521 113.924 386.791 114.97 385.818 115.768C384.832 116.55 383.487 116.941 381.783 116.941C380.054 116.941 378.698 116.55 377.712 115.768C376.737 114.97 375.996 113.924 375.485 112.63C374.985 111.335 374.669 109.875 374.536 108.25C374.4 106.609 374.335 104.939 374.335 103.238V82.1297L359.729 49.8915C358.937 48.1909 358.183 46.5203 357.466 44.8797C356.746 43.2393 356.388 41.5911 356.388 39.9356C356.388 38.8519 356.644 37.7534 357.155 36.6395C357.654 35.5259 358.579 34.4874 359.93 33.5241C361.391 32.5459 362.76 32.0566 364.038 32.0566C365.024 32.0566 365.911 32.3276 366.703 32.8694C367.507 33.4263 368.237 34.1487 368.894 35.0366C369.551 35.9248 370.141 36.9256 370.665 38.0392C371.187 39.1529 371.662 40.2742 372.089 41.403L380.998 64.5657H382.568L391.496 41.403C391.921 40.2742 392.396 39.1529 392.92 38.0392C393.442 36.9256 394.034 35.9248 394.691 35.0366C395.335 34.1487 396.06 33.4263 396.863 32.8694C397.667 32.3276 398.554 32.0566 399.529 32.0566C400.223 32.0566 400.898 32.1772 401.555 32.4179C402.2 32.6587 402.899 33.0274 403.655 33.5241C404.933 34.4874 405.838 35.5259 406.375 36.6395C406.91 37.7534 407.178 38.8519 407.178 39.9356C407.178 40.6731 406.915 41.8545 406.393 43.48C405.869 45.1206 405.024 47.2576 403.856 49.8915L389.141 82.1297ZM450.83 70.1419V103.238C450.83 104.939 450.775 106.609 450.665 108.25C450.567 109.875 450.275 111.335 449.789 112.63C449.302 113.924 448.566 114.97 447.58 115.768C446.605 116.55 445.236 116.941 443.472 116.941C441.67 116.941 440.265 116.565 439.255 115.813C438.244 115.075 437.49 114.165 436.991 113.081C436.504 112.013 436.206 110.891 436.097 109.717C435.974 108.558 435.914 107.573 435.914 106.76C435.622 107.934 435.208 109.123 434.673 110.327C434.125 111.546 433.431 112.637 432.591 113.6C431.739 114.579 430.716 115.376 429.524 115.993C428.33 116.625 426.932 116.941 425.325 116.941C423.523 116.941 421.729 116.58 419.94 115.858C418.138 115.121 416.518 113.909 415.083 112.223C413.647 110.523 412.478 108.302 411.578 105.563C410.676 102.839 410.227 99.4755 410.227 95.4719V77.908C410.227 73.8595 410.676 70.4731 411.578 67.7489C412.478 65.0098 413.647 62.8048 415.083 61.1342C416.518 59.4636 418.138 58.2596 419.94 57.5221C421.729 56.7997 423.523 56.4385 425.325 56.4385C426.932 56.4385 428.33 56.7396 429.524 57.3415C430.716 57.9436 431.739 58.7337 432.591 59.7119C433.431 60.6753 434.125 61.7663 434.673 62.9854C435.208 64.1896 435.622 65.401 435.914 66.6201C435.914 64.6034 436.144 62.9254 436.608 61.5857C437.057 60.2463 437.641 59.1853 438.361 58.4025C439.091 57.6201 439.9 57.0783 440.789 56.7771C441.689 56.461 442.583 56.303 443.472 56.303C445.103 56.303 446.412 56.7019 447.398 57.4995C448.371 58.2822 449.114 59.3133 449.625 60.5924C450.123 61.8566 450.446 63.3317 450.592 65.0172C450.749 66.6879 450.83 68.3962 450.83 70.1419ZM425.325 79.24V93.8916C425.325 94.9904 425.355 96.0666 425.417 97.12C425.49 98.1736 425.672 99.1218 425.964 99.9645C426.256 100.808 426.687 101.485 427.261 101.996C427.832 102.508 428.622 102.764 429.634 102.764C430.912 102.764 431.952 102.41 432.756 101.703C433.559 100.996 434.185 99.9042 434.636 98.4294C435.098 96.9545 435.421 95.0882 435.604 92.8306C435.774 90.5881 435.878 87.9167 435.914 84.8162C435.914 83.5519 435.823 82.1071 435.64 80.4816C435.469 78.8413 435.153 77.291 434.691 75.831C434.227 74.3862 433.588 73.1522 432.774 72.1286C431.958 71.1204 430.912 70.616 429.634 70.616C428.622 70.616 427.832 70.872 427.261 71.3836C426.687 71.8803 426.256 72.535 425.964 73.3477C425.672 74.1604 425.49 75.0786 425.417 76.1019C425.355 77.1404 425.325 78.1864 425.325 79.24ZM495.741 116.941C494.072 116.941 492.747 116.55 491.761 115.768C490.775 114.97 490.019 113.924 489.497 112.63C488.973 111.335 488.639 109.875 488.493 108.25C488.347 106.609 488.274 104.939 488.274 103.238V79.24C488.274 78.1412 488.237 77.0653 488.164 76.0116C488.079 74.9583 487.891 74.0324 487.599 73.2348C487.306 72.4221 486.874 71.7599 486.302 71.2482C485.729 70.7515 484.951 70.5032 483.965 70.5032C482.662 70.5032 481.598 71.045 480.771 72.1286C479.955 73.2274 479.31 74.7174 478.835 76.5986C478.361 78.4798 478.038 80.6925 477.868 83.2359C477.685 85.7795 477.594 88.5263 477.594 91.476V103.238C477.594 104.939 477.521 106.609 477.375 108.25C477.229 109.875 476.9 111.335 476.389 112.63C475.878 113.924 475.135 114.97 474.162 115.768C473.176 116.55 471.836 116.941 470.145 116.941C468.44 116.941 467.096 116.55 466.111 115.768C465.136 114.97 464.394 113.924 463.883 112.63C463.383 111.335 463.062 109.875 462.916 108.25C462.757 106.609 462.678 104.939 462.678 103.238V70.0065C462.678 68.3208 462.739 66.6578 462.861 65.0172C462.97 63.3769 463.273 61.9092 463.774 60.615C464.259 59.3207 465.002 58.2822 466.001 57.4995C466.998 56.7019 468.38 56.303 470.145 56.303C471.934 56.303 473.327 56.6793 474.326 57.4318C475.323 58.1842 476.066 59.0949 476.553 60.1635C477.052 61.2322 477.349 62.3533 477.448 63.5272C477.545 64.7012 477.594 65.6945 477.594 66.5072C477.886 65.3333 478.348 64.1368 478.981 62.9177C479.626 61.7137 480.435 60.6227 481.41 59.6442C482.395 58.6811 483.527 57.8833 484.805 57.2512C486.07 56.6191 487.489 56.303 489.059 56.303C491.224 56.303 493.318 56.9503 495.339 58.2445C497.371 59.539 499.106 61.646 500.542 64.5657C501.028 63.1812 501.747 61.9772 502.697 60.9536C503.646 59.9151 504.723 59.0572 505.928 58.38C507.133 57.6878 508.422 57.1686 509.799 56.8222C511.173 56.4762 512.53 56.303 513.87 56.303C515.67 56.303 517.472 56.6717 519.274 57.4092C521.063 58.1316 522.675 59.3433 524.112 61.0439C525.559 62.7448 526.728 64.9572 527.617 67.6812C528.517 70.4054 528.968 73.7692 528.968 77.7725V103.238C528.968 104.939 528.888 106.609 528.731 108.25C528.559 109.875 528.212 111.335 527.69 112.63C527.179 113.924 526.423 114.97 525.426 115.768C524.428 116.55 523.095 116.941 521.428 116.941C519.723 116.941 518.372 116.55 517.375 115.768C516.376 114.97 515.615 113.924 515.093 112.63C514.569 111.335 514.235 109.875 514.089 108.25C513.943 106.609 513.87 104.939 513.87 103.238V79.24C513.87 78.1412 513.82 77.0653 513.724 76.0116C513.625 74.9583 513.432 74.0324 513.139 73.2348C512.847 72.4221 512.402 71.7599 511.807 71.2482C511.223 70.7515 510.438 70.5032 509.452 70.5032C508.417 70.5032 507.527 70.9095 506.786 71.7222C506.056 72.5198 505.441 73.6263 504.942 75.0409C504.455 76.4557 504.084 78.1489 503.829 80.1204C503.56 82.0771 503.378 84.2066 503.281 86.5094V103.238C503.281 104.939 503.208 106.609 503.062 108.25C502.916 109.875 502.58 111.335 502.058 112.63C501.534 113.924 500.773 114.97 499.776 115.768C498.777 116.55 497.432 116.941 495.741 116.941Z" fill="#FEFFFF"/>
</svg>
